<?xml version="1.0" encoding="utf-8"?>
<!-- Generator: Adobe Illustrator 14.0.0, SVG Export Plug-In . SVG Version: 6.00 Build 43363)  -->
<!DOCTYPE svg PUBLIC "-//W3C//DTD SVG 1.1//EN" "http://www.w3.org/Graphics/SVG/1.1/DTD/svg11.dtd">
<svg version="1.1" id="Layer_1" xmlns="http://www.w3.org/2000/svg" xmlns:xlink="http://www.w3.org/1999/xlink" x="0px" y="0px"
	 width="400px" height="107px" viewBox="0 0 400 107" enable-background="new 0 0 400 107" xml:space="preserve">
<g>
	<g>
		<path fill="#FFFFFF" d="M21.592,51.09c9.821,0,14.119-4.788,14.119-14.117c0-9.331-4.297-13.996-14.119-13.996H15.7V51.09H21.592z
			 M-0.014,10.945H24.54c17.678,0,26.884,9.821,26.884,26.027c0,16.203-9.207,26.148-26.884,26.148H15.7v33.514H-0.014V10.945z"/>
		<path fill="#FFFFFF" d="M114.782,84.604h8.715c8.472,0,13.137-5.154,13.137-13.135c0-7.489-3.928-13.136-13.626-13.136h-8.226
			V84.604z M114.782,46.793h8.103c7.734,0,12.275-5.77,12.275-12.768c0-7.243-5.155-11.539-12.644-11.539h-7.734V46.793z
			 M99.56,10.945h25.043c17.678,0,25.781,6.629,25.781,21.116c0,13.627-8.593,17.679-14.24,19.766v0.244
			c6.629,1.474,16.205,6.139,16.205,20.502c0,15.592-11.417,24.062-26.64,24.062H99.56V10.945z"/>
		<path fill="#FFFFFF" d="M217.793,84.604h5.279c17.678,0,25.658-12.03,25.658-30.812c0-18.783-7.98-30.814-25.658-30.814h-5.279
			V84.604z M202.078,10.945h22.344c26.764,0,41.004,14.486,41.004,42.846c0,28.85-17.186,42.844-41.004,42.844h-22.344V10.945z"/>
	</g>
	<polygon fill="#FFFFFF" points="350.758,26.415 350.512,26.415 337.008,96.636 318.471,96.636 301.16,10.946 315.893,10.946 
		327.924,76.992 328.168,76.992 341.059,10.946 360.209,10.946 372.979,76.992 373.223,76.992 385.744,10.946 399.986,10.946 
		382.309,96.636 363.525,96.636 	"/>
	<g>
		<path fill="#FFFFFF" d="M70.753,106.819h-1.458V-0.042h1.458V106.819L70.753,106.819z M285.451,106.818h-1.459V-0.043h1.459
			V106.818L285.451,106.818z M175.057,106.818h-1.458V-0.043h1.458V106.818L175.057,106.818z"/>
	</g>
</g>
</svg>
