<?xml version="1.0" encoding="utf-8"?>
<!-- Generator: Adobe Illustrator 14.0.0, SVG Export Plug-In . SVG Version: 6.00 Build 43363)  -->
<!DOCTYPE svg PUBLIC "-//W3C//DTD SVG 1.1//EN" "http://www.w3.org/Graphics/SVG/1.1/DTD/svg11.dtd">
<svg version="1.1" id="Layer_1" xmlns="http://www.w3.org/2000/svg" xmlns:xlink="http://www.w3.org/1999/xlink" x="0px" y="0px"
	 width="1000px" height="40px" viewBox="0 0 1000 40" enable-background="new 0 0 1000 40" xml:space="preserve">
<g>
	<path fill="#FFFFFF" d="M11.627,37.921H3.263V1.839H16.75c3.502,0,6.691,0,9.671,2.051c3.032,2.156,4.652,5.26,4.652,8.994
		c0,3.419-1.202,6.89-3.868,9.152c-3.084,2.578-6.378,2.525-10.194,2.525h-5.384V37.921z M16.332,17.987c1.987,0,3.66,0,5.124-1.578
		c0.784-0.894,1.15-2.051,1.15-3.208c0-1.42-0.575-2.893-1.725-3.787c-1.307-0.999-3.032-0.999-4.601-0.999h-4.652v9.573H16.332z"/>
	<path fill="#FFFFFF" d="M57.375,30.768v7.153H34.583V1.839h8.364v28.928H57.375z"/>
	<path fill="#FFFFFF" d="M91.565,37.921h-9.044l-2.195-7.416H68.72l-2.248,7.416h-7.371L70.602,1.839h9.724L91.565,37.921z
		 M78.391,23.877l-3.816-12.675l-3.816,12.675H78.391z"/>
	<path fill="#FFFFFF" d="M115.399,8.993h-8.991v28.928h-8.364V8.993h-9.096V1.839h26.452V8.993z"/>
	<path fill="#FFFFFF" d="M144.115,8.993h-8.991v28.928h-8.364V8.993h-9.096V1.839h26.452V8.993z"/>
	<path fill="#FFFFFF" d="M180.335,1.839c2.823,0,5.75,0,8.208,1.578c2.875,1.841,4.391,4.471,4.391,7.89
		c0,4.103-2.718,6.838-6.482,7.785v0.105c4.443,0.894,7.476,4.313,7.476,8.994c0,3.156-1.882,5.943-4.392,7.784
		c-2.614,1.946-6.116,1.946-9.201,1.946h-16.049V1.839H180.335z M172.651,16.146h5.698c1.464,0,3.189,0.105,4.443-0.841
		c0.993-0.736,1.516-2.051,1.516-3.261c0-1.315-0.627-2.577-1.777-3.261c-1.203-0.684-3.398-0.526-4.81-0.526h-5.071V16.146z
		 M172.651,31.241h5.803c1.516,0,3.45,0.105,4.757-0.789c1.202-0.789,1.882-2.262,1.882-3.734c0-1.367-0.836-2.788-2.039-3.472
		c-1.202-0.684-2.875-0.684-4.234-0.684h-6.168V31.241z"/>
	<path fill="#FFFFFF" d="M213.62,22.72v15.201h-8.364V22.72L193.912,1.839h9.724l6.9,13.728l6.796-13.728h7.528L213.62,22.72z"/>
	<path fill="#FFFFFF" d="M253.137,37.921h-9.044l-2.195-7.416h-11.605l-2.248,7.416h-7.371l11.501-36.082h9.724L253.137,37.921z
		 M239.963,23.877l-3.816-12.675l-3.816,12.675H239.963z"/>
	<path fill="#FFFFFF" d="M264.863,37.921h-8.364V1.839h15.108c3.189,0,6.43,0.053,9.201,1.841c2.928,1.946,4.548,5.47,4.548,8.994
		c0,4.103-2.353,7.89-6.221,9.31l6.639,15.937h-9.305l-5.489-14.254h-6.116V37.921z M264.863,17.46h4.601
		c1.725,0,3.607,0.158,5.123-0.736c1.359-0.841,2.091-2.524,2.091-4.103c0-1.42-0.836-2.945-2.039-3.682
		c-1.412-0.894-3.816-0.684-5.385-0.684h-4.391V17.46z"/>
	<path fill="#FFFFFF" d="M300.583,1.839c5.175,0,9.619,0.315,13.54,4.05c3.869,3.682,5.542,8.679,5.542,13.886
		c0,4.839-1.464,9.52-4.653,13.149c-3.555,3.945-7.946,4.997-13.017,4.997H290.18V1.839H300.583z M298.544,31.136h2.823
		c3.502,0,5.75-0.684,7.685-3.84c1.412-2.313,1.987-5.102,1.987-7.784c0-2.84-0.836-5.891-2.562-8.152
		c-1.935-2.524-4.078-2.893-7.058-2.893h-2.875V31.136z"/>
	<path fill="#FFFFFF" d="M350.76,1.839c5.175,0,9.619,0.315,13.54,4.05c3.869,3.682,5.542,8.679,5.542,13.886
		c0,4.839-1.464,9.52-4.653,13.149c-3.555,3.945-7.946,4.997-13.017,4.997h-11.814V1.839H350.76z M348.722,31.136h2.823
		c3.502,0,5.75-0.684,7.685-3.84c1.412-2.313,1.987-5.102,1.987-7.784c0-2.84-0.836-5.891-2.562-8.152
		c-1.935-2.524-4.078-2.893-7.058-2.893h-2.875V31.136z"/>
	<path fill="#FFFFFF" d="M376.747,32.767c-2.614-3.734-3.764-8.416-3.764-12.939c0-9.573,4.757-18.514,15.369-18.514
		c4.757,0,8.521,1.578,11.396,5.522c2.562,3.524,3.869,8.626,3.869,12.992c0,4.102-1.098,9.099-3.398,12.518
		c-2.771,4.103-7.005,6.102-11.867,6.102C383.49,38.447,379.569,36.764,376.747,32.767z M382.915,12.306
		c-0.836,2.156-1.15,5.26-1.15,7.521c0,4.523,0.679,11.729,6.586,11.729c2.875,0,4.444-1.42,5.385-4.103
		c0.836-2.209,1.098-5.207,1.098-7.574c0-2.629-0.261-5.733-1.307-8.152c-1.046-2.419-2.562-3.524-5.176-3.524
		C385.477,8.204,383.908,9.676,382.915,12.306z"/>
	<path fill="#FFFFFF" d="M423.983,37.921h-9.044L404.17,1.839h8.939l7.214,25.773l7.423-25.773h7.057L423.983,37.921z"/>
	<path fill="#FFFFFF" d="M446.311,8.835v7.311h13.592v6.785h-13.592v7.995h17.251v6.995h-25.616V1.839h25.616v6.996H446.311z"/>
	<path fill="#FFFFFF" d="M491.081,30.768v7.153h-22.792V1.839h8.364v28.928H491.081z"/>
	<path fill="#FFFFFF" d="M516.865,30.768v7.153h-22.792V1.839h8.365v28.928H516.865z"/>
	<path fill="#FFFFFF" d="M570.285,37.921h-8.26l-5.854-23.879h-0.104l-5.646,23.879h-8.154l-9.253-36.082h8.573l5.488,24.299h0.105
		l5.803-24.299h7.736l6.012,24.299h0.104l0.313-1.577l5.229-22.722h6.9L570.285,37.921z"/>
	<path fill="#FFFFFF" d="M610.359,37.921h-8.365V23.036h-11.082v14.885h-8.364V1.839h8.364v14.096h11.082V1.839h8.365V37.921z"/>
	<path fill="#FFFFFF" d="M625.169,37.921h-8.364V1.839h8.364V37.921z"/>
	<path fill="#FFFFFF" d="M655.146,8.993h-8.992v28.928h-8.364V8.993h-9.096V1.839h26.452V8.993z"/>
	<path fill="#FFFFFF" d="M666.967,8.835v7.311h13.592v6.785h-13.592v7.995h17.251v6.995h-25.615V1.839h25.615v6.996H666.967z"/>
	<path fill="#DDDDDD" d="M734.134,37.921h-9.044l-2.195-7.416h-11.605l-2.248,7.416h-7.371l11.501-36.082h9.724L734.134,37.921z
		 M720.96,23.877l-3.816-12.675l-3.815,12.675H720.96z"/>
	<path fill="#DDDDDD" d="M745.86,37.921h-8.364V1.839h15.107c3.188,0,6.43,0.053,9.201,1.841c2.927,1.946,4.548,5.47,4.548,8.994
		c0,4.103-2.353,7.89-6.221,9.31l6.639,15.937h-9.306l-5.488-14.254h-6.116V37.921z M745.86,17.46h4.6
		c1.726,0,3.607,0.158,5.123-0.736c1.359-0.841,2.092-2.524,2.092-4.103c0-1.42-0.837-2.945-2.039-3.682
		c-1.411-0.894-3.816-0.684-5.385-0.684h-4.391V17.46z"/>
	<path fill="#DDDDDD" d="M791.189,15.83c-0.053-3.997-1.412-7.732-6.013-7.732c-5.907,0-6.481,7.785-6.481,12.15
		c0,4.944,0.574,11.309,6.9,11.309c3.921,0,5.75-3.313,6.221-6.785l8.155,0.526c-0.889,8.258-6.535,13.149-14.795,13.149
		c-10.664,0-15.84-8.731-15.84-18.567c0-9.993,5.333-18.566,16.102-18.566c8.991,0,13.592,5.26,14.533,13.938L791.189,15.83z"/>
	<path fill="#DDDDDD" d="M832.492,37.921h-8.363V23.036h-11.083v14.885h-8.364V1.839h8.364v14.096h11.083V1.839h8.363V37.921z"/>
	<path fill="#DDDDDD" d="M847.303,37.921h-8.364V1.839h8.364V37.921z"/>
	<path fill="#DDDDDD" d="M877.28,8.993h-8.992v28.928h-8.364V8.993h-9.096V1.839h26.452V8.993z"/>
	<path fill="#DDDDDD" d="M889.101,8.835v7.311h13.592v6.785h-13.592v7.995h17.251v6.995h-25.615V1.839h25.615v6.996H889.101z"/>
	<path fill="#DDDDDD" d="M930.63,15.83c-0.053-3.997-1.412-7.732-6.013-7.732c-5.907,0-6.481,7.785-6.481,12.15
		c0,4.944,0.574,11.309,6.9,11.309c3.921,0,5.75-3.313,6.221-6.785l8.155,0.526c-0.889,8.258-6.535,13.149-14.795,13.149
		c-10.664,0-15.84-8.731-15.84-18.567c0-9.993,5.333-18.566,16.102-18.566c8.991,0,13.592,5.26,14.533,13.938L930.63,15.83z"/>
	<path fill="#DDDDDD" d="M967.997,8.993h-8.992v28.928h-8.364V8.993h-9.096V1.839h26.452V8.993z"/>
	<path fill="#DDDDDD" d="M990.042,12.148c-1.045-3.051-2.979-4.26-6.168-4.26c-2.248,0-4.967,0.579-4.967,3.366
		c0,2.63,3.137,3.261,5.176,3.629c2.927,0.631,6.848,1.368,9.357,3.051c2.928,1.946,4.705,4.944,4.705,8.521
		c0,3.523-1.673,6.89-4.444,9.046c-2.875,2.262-6.796,2.946-10.402,2.946c-6.744,0-12.86-2.946-14.48-9.994l7.736-1.788
		c1.046,3.787,3.764,5.102,7.476,5.102c2.405,0,5.594-0.894,5.594-3.892s-4.077-3.576-6.273-4.051
		c-6.378-1.314-12.65-3.208-12.65-11.097c0-3.366,1.307-6.312,3.868-8.468c2.614-2.209,5.698-2.945,8.991-2.945
		c6.273,0,11.396,2.209,13.593,8.468L990.042,12.148z"/>
</g>
</svg>
